<svg width="21" height="20" viewBox="0 0 21 20" fill="none" xmlns="http://www.w3.org/2000/svg">
<g clip-path="url(#clip0_2006_1408)">
<path fill-rule="evenodd" clip-rule="evenodd" d="M1 3.3502C1 2.30085 1.85066 1.4502 2.9 1.4502H8.6V16.6502H5.275C5.275 17.1749 4.84967 17.6002 4.325 17.6002C3.80033 17.6002 3.375 17.1749 3.375 16.6502H2.9C1.85066 16.6502 1 15.7995 1 14.7502V9.52519H6.50325L4.29124 11.7372C4.10574 11.9227 4.10574 12.2234 4.29124 12.409C4.47674 12.5945 4.77749 12.5945 4.96299 12.409L7.98587 9.38607C8.17136 9.20058 8.17136 8.89981 7.98587 8.71432L4.963 5.69144C4.77749 5.50594 4.47674 5.50594 4.29124 5.69144C4.10574 5.87694 4.10574 6.17769 4.29124 6.36317L6.50325 8.57519H1V3.3502Z" fill="#070D0A"/>
<path fill-rule="evenodd" clip-rule="evenodd" d="M10 1.4502H18.075C19.1243 1.4502 19.975 2.30085 19.975 3.3502V14.7502C19.975 15.7995 19.1243 16.6502 18.075 16.6502H17.6C17.6 17.1749 17.1747 17.6002 16.65 17.6002C16.1253 17.6002 15.7 17.1749 15.7 16.6502H10V1.4502ZM14.3757 11.3141C13.9653 11.2856 13.6319 11.2315 13.3754 11.1517C13.1246 11.0662 12.9364 10.9892 12.811 10.9208L13.1018 10.1086C13.2842 10.1998 13.5036 10.2824 13.7601 10.3565C14.0223 10.4306 14.3187 10.4677 14.6493 10.4677C15.0426 10.4677 15.3133 10.4107 15.4615 10.2967C15.6154 10.177 15.6924 10.0202 15.6924 9.82644C15.6924 9.69534 15.661 9.58134 15.5984 9.48444C15.5356 9.38754 15.4473 9.30204 15.3333 9.22794C15.2193 9.15384 15.0825 9.08544 14.9229 9.02274C14.769 8.96004 14.598 8.89449 14.4099 8.82609C14.2332 8.76339 14.0565 8.69214 13.8798 8.61234C13.7088 8.53254 13.552 8.43564 13.4095 8.32164C13.2727 8.20194 13.1616 8.05944 13.0761 7.89414C12.9906 7.72884 12.9478 7.52649 12.9478 7.28709C12.9478 6.89379 13.0647 6.56034 13.2984 6.28674C13.5321 6.00744 13.8912 5.82789 14.3757 5.74809V4.7905H15.2649V5.71389C15.5385 5.73669 15.7836 5.77659 16.0002 5.83359C16.2168 5.88489 16.3878 5.93619 16.5132 5.98749L16.2995 6.83394C16.1342 6.77124 15.9375 6.71139 15.7095 6.65439C15.4872 6.59739 15.2307 6.56889 14.94 6.56889C14.6322 6.56889 14.4014 6.62589 14.2474 6.73989C14.0935 6.84819 14.0166 6.99924 14.0166 7.19304C14.0166 7.30704 14.0394 7.40394 14.085 7.48374C14.1306 7.55784 14.199 7.62624 14.2902 7.68894C14.3814 7.74594 14.4925 7.80294 14.6237 7.85994C14.7547 7.91124 14.903 7.96539 15.0683 8.02239C15.302 8.11359 15.5214 8.21049 15.7266 8.31309C15.9375 8.40999 16.1199 8.52684 16.2738 8.66364C16.4277 8.79474 16.5474 8.95149 16.6329 9.13389C16.7241 9.31629 16.7697 9.53289 16.7697 9.78369C16.7697 10.1599 16.6529 10.4848 16.4192 10.7584C16.1855 11.032 15.8007 11.2087 15.2649 11.2885V12.3572H14.3757V11.3141Z" fill="#070D0A"/>
</g>
<defs>
<clipPath id="clip0_2006_1408">
<rect width="19" height="17.1" fill="white" transform="translate(1 1.4502)"/>
</clipPath>
</defs>
</svg>
