<svg width="21" height="20" viewBox="0 0 21 20" fill="none" xmlns="http://www.w3.org/2000/svg">
<g clip-path="url(#clip0_2006_1446)">
<path d="M6.00004 18.3332C5.54171 18.3332 5.14949 18.1701 4.82337 17.844C4.49726 17.5179 4.33393 17.1254 4.33337 16.6665V3.33317C4.33337 2.87484 4.49671 2.48262 4.82337 2.1565C5.15004 1.83039 5.54226 1.66706 6.00004 1.6665H12.6667L17.6667 6.6665V9.1665C17.3473 9.23595 17.0487 9.34706 16.7709 9.49984C16.4931 9.65261 16.2362 9.84706 16 10.0832L11 15.0623V18.3332H6.00004ZM12.6667 18.3332V15.7707L17.2709 11.1873C17.3959 11.0623 17.5348 10.9721 17.6875 10.9165C17.8403 10.8609 17.9931 10.8332 18.1459 10.8332C18.3125 10.8332 18.4723 10.8646 18.625 10.9273C18.7778 10.9901 18.9167 11.0837 19.0417 11.2082L19.8125 11.979C19.9237 12.104 20.0106 12.2429 20.0734 12.3957C20.1362 12.5484 20.1673 12.7012 20.1667 12.854C20.1662 13.0068 20.1384 13.1632 20.0834 13.3232C20.0284 13.4832 19.9381 13.6254 19.8125 13.7498L15.2292 18.3332H12.6667ZM18.1459 13.6665L18.9167 12.854L18.1459 12.0832L17.3542 12.8748L18.1459 13.6665ZM11.8334 7.49984H16L11.8334 3.33317V7.49984Z" fill="#070D0A"/>
</g>
<defs>
<clipPath id="clip0_2006_1446">
<rect width="20" height="20" fill="white" transform="translate(0.5)"/>
</clipPath>
</defs>
</svg>
