<svg width="21" height="20" viewBox="0 0 21 20" fill="none" xmlns="http://www.w3.org/2000/svg">
<g clip-path="url(#clip0_2006_1434)">
<path d="M11 18.3332C10.5417 18.3332 10.1495 18.1701 9.82337 17.844C9.49726 17.5179 9.33393 17.1254 9.33337 16.6665H12.6667C12.6667 17.1248 12.5037 17.5173 12.1775 17.844C11.8514 18.1707 11.4589 18.3337 11 18.3332ZM4.33337 15.8332V14.1665H6.00004V8.33317C6.00004 7.18039 6.34726 6.15623 7.04171 5.26067C7.73615 4.36512 8.63893 3.77817 9.75004 3.49984V2.91651C9.75004 2.56928 9.87171 2.27428 10.115 2.03151C10.3584 1.78873 10.6534 1.66706 11 1.66651C11.3467 1.66595 11.642 1.78762 11.8859 2.03151C12.1298 2.27539 12.2512 2.57039 12.25 2.91651V3.18734C12.1112 3.46512 12.007 3.75678 11.9375 4.06234C11.8681 4.36789 11.8334 4.68039 11.8334 4.99984C11.8334 6.15262 12.2398 7.13539 13.0525 7.94817C13.8653 8.76095 14.8478 9.16706 16 9.16651V14.1665H17.6667V15.8332H4.33337ZM16 7.49984C15.3056 7.49984 14.7153 7.25678 14.2292 6.77067C13.7431 6.28456 13.5 5.69428 13.5 4.99984C13.5 4.30539 13.7431 3.71512 14.2292 3.22901C14.7153 2.74289 15.3056 2.49984 16 2.49984C16.6945 2.49984 17.2848 2.74289 17.7709 3.22901C18.257 3.71512 18.5 4.30539 18.5 4.99984C18.5 5.69428 18.257 6.28456 17.7709 6.77067C17.2848 7.25678 16.6945 7.49984 16 7.49984Z" fill="#070D0A"/>
</g>
<defs>
<clipPath id="clip0_2006_1434">
<rect width="20" height="20" fill="white" transform="translate(0.5)"/>
</clipPath>
</defs>
</svg>
